<svg xmlns="http://www.w3.org/2000/svg" viewBox="0 0 448 512"><g transform="translate(160)"><path d="m 96.099609,151.30078 c -9.4,5.4 -20.3,8.59961 -32,8.59961 h -2.199218 c -0.7,0 -1.401172,-0.0996 -2.201172,-0.0996 -1.4,-0.1 -2.898828,-0.20039 -4.298828,-0.40039 -2.8,-0.4 -5.601172,-0.90117 -8.201172,-1.70117 C 41.799219,156.19922 36.7,154.10039 32,151.40039 V 360.5 c 9.4,-5.4 20.3,-8.59961 32,-8.59961 h 2.199219 c 0.7,0 1.401172,0.0996 2.201172,0.0996 1.4,0.1 2.898828,0.20039 4.298828,0.40039 2.8,0.4 5.601172,0.89922 8.201172,1.69922 5.4,1.5 10.499218,3.60078 15.199218,6.30078 z" style="opacity:0.4" /><path d="m 64,352 a 64,64 0 0 0 0,128 64,64 0 0 0 0,-128 z" /><path d="M 64,32 A 64,64 0 0 0 0,96 64,64 0 0 0 128,96 64,64 0 0 0 64,32 Z"/></g></svg>