<?xml version="1.0" encoding="UTF-8" standalone="no"?>
<svg
   viewBox="0 0 512 512"
   version="1.1"
   id="svg1"
   sodipodi:docname="shortcut.svg"
   inkscape:version="1.4 (e7c3feb1, 2024-10-09)"
   xmlns:inkscape="http://www.inkscape.org/namespaces/inkscape"
   xmlns:sodipodi="http://sodipodi.sourceforge.net/DTD/sodipodi-0.dtd"
   xmlns="http://www.w3.org/2000/svg"
   xmlns:svg="http://www.w3.org/2000/svg">
  <defs
     id="defs1" />
  <sodipodi:namedview
     id="namedview1"
     pagecolor="#505050"
     bordercolor="#eeeeee"
     borderopacity="1"
     inkscape:showpageshadow="0"
     inkscape:pageopacity="0"
     inkscape:pagecheckerboard="0"
     inkscape:deskcolor="#d1d1d1"
     inkscape:zoom="0.81172069"
     inkscape:cx="157.07373"
     inkscape:cy="272.87711"
     inkscape:window-width="1440"
     inkscape:window-height="900"
     inkscape:window-x="0"
     inkscape:window-y="0"
     inkscape:window-maximized="0"
     inkscape:current-layer="svg1" />
  <!--!Font Awesome Pro 6.7.2 by @fontawesome - https://fontawesome.com License - https://fontawesome.com/license (Commercial License) Copyright 2025 Fonticons, Inc.-->
  <g
     id="g1"
     transform="rotate(45,274.16958,212.02391)">
    <path
       d="m 461.7,427 c -35.8,37.4 -77.7,53 -77.7,53 0,0 30.1,-30.1 31.9,-75.7 0.1,-1.4 0.1,-2.8 0.1,-4.3 0,-61.9 -50.1,-112 -112,-112 h -32 -48 v 48 12.2 0.9 34.9 H 192 L 176,369.3 35.5,240.6 0,208 35.5,175.4 176,46.7 192,32 h 32 v 34.9 0.9 12.2 48 h 48 64 c 97.2,0 176,78.8 176,176 0,54.8 -23.5,95 -50.3,123 z m -5.8,-77.6 C 460.9,336 464,321 464,304 464,233.3 406.7,176 336,176 H 224 176 V 128 111.8 L 71,208 176,304.2 V 288 240 h 48 80 c 70.7,0 130.6,45.8 151.8,109.4 z"
       id="path1" />
    <path
       d="M 455.9,349.4 C 460.9,336 464,321 464,304 464,233.3 406.7,176 336,176 H 224 176 V 128 111.8 L 71,208 176,304.2 V 288 240 h 48 80 c 70.7,0 130.6,45.8 151.8,109.4 z"
       id="path2"
       style="fill:#f0f5eb" />
  </g>
</svg>
